<svg width="24" height="24" viewBox="0 0 24 24" fill="none" xmlns="http://www.w3.org/2000/svg">
<path d="M17.6161 6.35838C17.341 6.08093 17.0659 5.80347 16.745 5.57225C16.6533 5.52601 16.5616 5.43353 16.4699 5.38728C16.149 5.15607 15.7822 4.92486 15.4155 4.78613C15.3238 4.73988 15.1863 4.69364 15.0487 4.6474C14.9112 4.60116 14.8195 4.55491 14.6819 4.50867C14.6361 4.46243 14.5444 4.41619 14.4069 4.41619H14.361C14.3152 4.41619 14.2235 4.36994 14.1776 4.36994C14.1318 4.36994 14.0401 4.3237 13.9943 4.3237C13.9026 4.27746 13.765 4.27746 13.6733 4.23121C13.6275 4.23121 13.5358 4.18497 13.49 4.18497C13.3983 4.18497 13.3066 4.13873 13.2149 4.13873C13.0774 4.13873 12.9857 4.09249 12.8481 4.09249C12.7565 4.09249 12.6647 4.09249 12.6189 4.04624C12.5731 4.04624 12.5272 4.04624 12.4814 4.04624C12.4356 4.04624 12.3438 4.04624 12.298 4.04624C12.2522 4 12.2521 4 12.2063 4C12.1605 4 12.1604 4 12.1146 4C12.0688 4 12.0687 4 12.0229 4H11.9313C11.8854 4 11.8854 4 11.8396 4C11.7479 4 11.6103 4 11.5186 4C11.4269 4 11.2894 4 11.1977 4.04624C11.1519 4.04624 11.106 4.04624 11.106 4.04624C10.9685 4.04624 10.8768 4.09249 10.7393 4.09249C10.7393 4.09249 10.7393 4.09249 10.6934 4.09249C10.5559 4.09249 10.4642 4.13873 10.3267 4.13873H10.2808C10.1891 4.13873 10.1433 4.18497 10.0516 4.18497C9.95987 4.18497 9.91405 4.23121 9.82236 4.23121H9.77651C9.68482 4.27746 9.54726 4.27746 9.45557 4.3237C9.31803 4.36994 9.22635 4.41619 9.08882 4.46243C8.21776 4.78613 7.43841 5.24856 6.75073 5.84971C6.75073 5.9422 6.65902 6.03468 6.56733 6.12717C6.47564 6.21965 6.38398 6.31214 6.29229 6.40462C6.20059 6.49711 6.10888 6.5896 6.06304 6.68208C5.87966 6.86705 5.69628 7.05202 5.55874 7.23699C5.46705 7.37572 5.42118 7.46821 5.32949 7.56069C5.28365 7.65318 5.19199 7.74567 5.14614 7.88439C5.1003 7.97688 5.00859 8.06936 4.96274 8.20809C4.9169 8.30058 4.87104 8.43931 4.77935 8.53179C4.68766 8.67052 4.64184 8.85549 4.55015 8.99422C4.55015 9.08671 4.50429 9.17919 4.45845 9.27168C4.27507 9.78035 4.13754 10.289 4.0917 10.7977C4.0917 10.8902 4.04585 10.9827 4.04585 11.0751C4 11.3988 4 11.7225 4 12.0462C4 12.3699 4 12.6936 4.04585 12.9711C4.04585 13.0636 4.0917 13.1561 4.0917 13.2486C4.18339 13.9422 4.36677 14.5896 4.64185 15.1908C4.68769 15.2832 4.7335 15.422 4.77935 15.5145C4.82519 15.6532 4.9169 15.7457 4.96274 15.8382C5.00859 15.9306 5.1003 16.0694 5.14614 16.1619C5.19199 16.2543 5.28365 16.3468 5.32949 16.4393C5.42118 16.5318 5.46705 16.6705 5.55874 16.763C5.69628 16.948 5.87965 17.1792 6.01719 17.3642C6.10888 17.4566 6.20059 17.5491 6.29229 17.6416C6.38398 17.7341 6.47564 17.8266 6.56733 17.9191C6.65902 18.0116 6.75069 18.0578 6.84238 18.1503C7.1633 18.4277 7.53007 18.7052 7.94268 18.9364C8.03437 18.9827 8.12608 19.0289 8.21777 19.0751C8.30946 19.1214 8.44698 19.2139 8.53867 19.2601C8.81374 19.3988 9.043 19.4913 9.31807 19.5838C9.40976 19.6301 9.50143 19.6763 9.63896 19.6763C9.7765 19.7225 9.86818 19.7688 10.0057 19.7688C10.0057 19.7688 10.0057 19.7688 10.0516 19.7688C10.1891 19.815 10.2808 19.815 10.4184 19.8613H10.4642C10.6017 19.9075 10.6934 19.9075 10.831 19.9075C10.831 19.9075 10.831 19.9075 10.8768 19.9075C11.0143 19.9075 11.106 19.9538 11.2436 19.9538C11.2894 19.9538 11.3353 19.9538 11.3353 19.9538C11.4269 19.9538 11.5645 19.9538 11.6562 20C11.7478 20 11.8854 20 11.9771 20C12.0229 20 12.0229 20 12.0688 20H12.1146C12.1604 20 12.1605 20 12.2063 20C12.2521 20 12.2522 20 12.298 20C12.3438 20 12.3439 20 12.3897 20C12.4355 20 12.5272 20 12.573 20C12.7106 20 12.8023 20 12.9398 19.9538C13.0774 19.9538 13.1691 19.9075 13.3066 19.9075C13.3983 19.9075 13.49 19.8613 13.5816 19.8613C13.7192 19.815 13.9026 19.815 14.0401 19.7688C14.1318 19.7225 14.2235 19.7225 14.3152 19.6763C15.0946 19.4451 15.8739 19.0751 16.5616 18.6127C16.6533 18.5665 16.745 18.474 16.8367 18.4277C17.1576 18.1965 17.4326 17.9191 17.7077 17.6416C19.1748 16.1156 20 14.1272 20 12C19.9083 9.87283 19.0831 7.88439 17.6161 6.35838ZM13.169 4.73988C13.3983 4.78613 13.6275 4.83237 13.8567 4.87861C13.9943 4.92486 14.086 4.9711 14.2235 4.9711C14.3152 5.01734 14.4527 5.06358 14.5444 5.10983C14.9112 5.24855 15.2321 5.38728 15.553 5.57225C15.6447 5.6185 15.7364 5.66474 15.8281 5.71098C16.4241 6.08093 16.9742 6.54335 17.4327 7.05202C17.5702 7.23699 17.7536 7.42197 17.8911 7.60694C17.9828 7.69942 18.0287 7.79191 18.0745 7.88439C18.212 8.06936 18.3037 8.30058 18.4413 8.48555C18.6246 8.80925 18.7622 9.13295 18.8539 9.45665C18.9455 9.64162 18.9914 9.87283 19.0373 10.104C19.0831 10.2428 19.129 10.3815 19.129 10.5202C19.129 10.6127 19.1748 10.659 19.1748 10.7514C19.2207 11.0751 19.2665 11.3526 19.2665 11.6763H15.9656C15.9198 9.0867 14.8653 6.68208 13.0315 4.83237C12.9856 4.78613 12.9398 4.73988 12.894 4.69364C12.9857 4.69364 13.0774 4.73988 13.169 4.73988ZM12.6189 18.7977C12.4355 18.9827 12.2063 19.1676 11.9771 19.3526C11.7479 19.1676 11.5645 18.9827 11.3353 18.7977C9.63898 17.0867 8.67621 14.7746 8.58452 12.3699H15.3696C15.2779 14.7746 14.3152 17.0405 12.6189 18.7977ZM8.58452 11.7225C8.67621 9.27168 9.63898 7.00578 11.3353 5.2948C11.5186 5.10983 11.7479 4.87861 11.9771 4.73988C12.2063 4.92486 12.3897 5.10983 12.6189 5.2948C14.3152 7.00578 15.2779 9.31792 15.3696 11.7225H8.58452ZM5.19199 9.17919C5.23784 9.0867 5.28365 8.99422 5.32949 8.90173C5.55872 8.43931 5.78797 8.02312 6.10889 7.60694C6.15473 7.51445 6.24644 7.42197 6.29229 7.32948C6.42982 7.14451 6.6132 6.95954 6.75073 6.82081C6.84242 6.72832 6.93409 6.63584 7.02578 6.5896C7.11747 6.45087 7.20919 6.40462 7.30088 6.31214C7.39257 6.21965 7.48424 6.17341 7.57593 6.08093C7.66762 5.98844 7.75933 5.9422 7.85103 5.89595C7.94272 5.84971 8.03439 5.75723 8.17192 5.71098C8.26361 5.66474 8.35529 5.57225 8.49282 5.52601C8.58451 5.47977 8.72208 5.43353 8.81377 5.38728C8.90546 5.34104 9.04298 5.2948 9.13467 5.24856C9.40974 5.15607 9.63899 5.01734 9.91406 4.9711C9.95991 4.92486 10.0516 4.87861 10.1433 4.87861C10.2808 4.83237 10.3725 4.83237 10.51 4.78613C10.6475 4.73988 10.7393 4.73988 10.8768 4.73988C10.9685 4.73988 11.0143 4.69364 11.106 4.69364C11.0602 4.73988 11.0144 4.78613 10.9685 4.83237C9.13469 6.68208 8.12607 9.13295 8.03438 11.7225H4.64185C4.68769 10.7977 4.87108 9.96532 5.19199 9.17919ZM10.1433 19.1676C10.0516 19.1676 10.0058 19.1214 9.91406 19.1214C9.86822 19.1214 9.82235 19.0751 9.73066 19.0751C9.63897 19.0289 9.50146 18.9827 9.40977 18.9364C9.31807 18.8902 9.22635 18.8439 9.08882 18.7977C8.99713 18.7514 8.95131 18.7514 8.85962 18.7052C7.53011 18.0578 6.38396 17.0405 5.65044 15.7919C5.60459 15.6994 5.55874 15.6069 5.51289 15.5145C5.46705 15.3757 5.37534 15.2832 5.32949 15.1445C5.28365 15.052 5.23784 14.9595 5.19199 14.8671C4.87108 14.0809 4.68769 13.2486 4.64185 12.3237H7.98853C8.08022 14.9133 9.08885 17.3642 10.9227 19.2139C10.9685 19.2601 11.0143 19.3064 11.0602 19.3526C10.9685 19.3526 10.8768 19.3526 10.7851 19.3064C10.5559 19.3064 10.3266 19.2601 10.1433 19.1676ZM19.129 13.526C19.0831 13.6647 19.0831 13.8035 19.0373 13.9422C18.9914 14.1734 18.8997 14.3584 18.8539 14.5896C18.7163 14.9133 18.5788 15.237 18.4413 15.5607C18.3954 15.6532 18.3496 15.7457 18.3037 15.8382C18.3037 15.8382 18.3037 15.8844 18.2579 15.8844C18.1662 16.0694 18.0287 16.2081 17.937 16.3931C17.2951 17.2717 16.4699 18.0116 15.5072 18.5665C15.3238 18.659 15.1404 18.7514 14.9112 18.8439C14.4527 19.0289 14.0401 19.1676 13.5358 19.3064C13.3983 19.3526 13.3066 19.3526 13.169 19.3988C13.1232 19.3988 13.0773 19.3988 13.0315 19.3988C12.9856 19.3988 12.9398 19.3988 12.9398 19.3988C12.9857 19.3526 13.0315 19.3064 13.0773 19.2601C14.9112 17.4104 15.9198 14.9595 16.0115 12.3699H19.3123C19.3123 12.6936 19.2665 12.9711 19.2207 13.2948C19.1748 13.341 19.1748 13.4335 19.129 13.526Z" fill="#7E7E7E"/>
</svg>
