<svg width="48" height="48" viewBox="0 0 48 48" fill="none" xmlns="http://www.w3.org/2000/svg">
<path d="M23 26H25C25.2833 26 25.5208 25.9042 25.7125 25.7125C25.9042 25.5208 26 25.2833 26 25C26 24.7167 25.9042 24.4792 25.7125 24.2875C25.5208 24.0958 25.2833 24 25 24H23C22.7167 24 22.4792 24.0958 22.2875 24.2875C22.0958 24.4792 22 24.7167 22 25C22 25.2833 22.0958 25.5208 22.2875 25.7125C22.4792 25.9042 22.7167 26 23 26ZM23 23H29C29.2833 23 29.5208 22.9042 29.7125 22.7125C29.9042 22.5208 30 22.2833 30 22C30 21.7167 29.9042 21.4792 29.7125 21.2875C29.5208 21.0958 29.2833 21 29 21H23C22.7167 21 22.4792 21.0958 22.2875 21.2875C22.0958 21.4792 22 21.7167 22 22C22 22.2833 22.0958 22.5208 22.2875 22.7125C22.4792 22.9042 22.7167 23 23 23ZM23 20H29C29.2833 20 29.5208 19.9042 29.7125 19.7125C29.9042 19.5208 30 19.2833 30 19C30 18.7167 29.9042 18.4792 29.7125 18.2875C29.5208 18.0958 29.2833 18 29 18H23C22.7167 18 22.4792 18.0958 22.2875 18.2875C22.0958 18.4792 22 18.7167 22 19C22 19.2833 22.0958 19.5208 22.2875 19.7125C22.4792 19.9042 22.7167 20 23 20ZM20 30C19.45 30 18.9792 29.8042 18.5875 29.4125C18.1958 29.0208 18 28.55 18 28V16C18 15.45 18.1958 14.9792 18.5875 14.5875C18.9792 14.1958 19.45 14 20 14H32C32.55 14 33.0208 14.1958 33.4125 14.5875C33.8042 14.9792 34 15.45 34 16V28C34 28.55 33.8042 29.0208 33.4125 29.4125C33.0208 29.8042 32.55 30 32 30H20ZM20 28H32V16H20V28ZM16 34C15.45 34 14.9792 33.8042 14.5875 33.4125C14.1958 33.0208 14 32.55 14 32V19C14 18.7167 14.0958 18.4792 14.2875 18.2875C14.4792 18.0958 14.7167 18 15 18C15.2833 18 15.5208 18.0958 15.7125 18.2875C15.9042 18.4792 16 18.7167 16 19V32H29C29.2833 32 29.5208 32.0958 29.7125 32.2875C29.9042 32.4792 30 32.7167 30 33C30 33.2833 29.9042 33.5208 29.7125 33.7125C29.5208 33.9042 29.2833 34 29 34H16Z" fill="#152649"/>
</svg>
