<svg width="24" height="24" viewBox="0 0 24 24" fill="none" xmlns="http://www.w3.org/2000/svg">
<path d="M19.5867 17.679L15.838 13.8765C17.4657 11.358 17.1205 8 14.9995 5.87654C13.7664 4.69136 12.1386 4 10.4122 4C8.68583 4 7.10744 4.69136 5.87431 5.87654C4.69052 7.11111 4 8.69136 4 10.4198C4 12.1481 4.69052 13.7284 5.87431 14.963C7.10744 16.1975 8.68583 16.8395 10.4122 16.8395C11.6453 16.8395 12.8292 16.4938 13.865 15.8025L17.663 19.6049C17.9096 19.8519 18.2549 20 18.6495 20C18.9948 20 19.3401 19.8519 19.636 19.6049C20.1293 19.1111 20.1293 18.2222 19.5867 17.679ZM6.36757 14.4691C5.28242 13.3827 4.69053 11.9506 4.69053 10.4198C4.69053 8.88889 5.28242 7.45679 6.36757 6.37037C7.45272 5.28395 8.88313 4.69136 10.4122 4.69136C11.9413 4.69136 13.3718 5.28395 14.4569 6.37037C16.3806 8.2963 16.6765 11.358 15.1968 13.6296C15.1474 13.679 15.1475 13.7284 15.0981 13.7778C14.9008 14.0247 14.7035 14.321 14.4569 14.5185C14.3583 14.6173 14.2102 14.7654 14.1116 14.8642C14.1116 14.8642 14.0623 14.8642 14.0623 14.9136C13.9636 15.0123 13.8156 15.1111 13.717 15.2099C13.6676 15.2593 13.6184 15.2593 13.569 15.3086C12.6319 15.9506 11.5467 16.2469 10.4122 16.2469C8.88313 16.1975 7.45272 15.5556 6.36757 14.4691ZM19.1427 19.1605C18.9948 19.3086 18.8468 19.358 18.6495 19.358C18.4522 19.358 18.3042 19.3086 18.1562 19.1605L14.4569 15.4568L14.5062 15.4074C14.6542 15.2593 14.8515 15.1111 14.9995 14.963C15.1475 14.8148 15.2954 14.6667 15.4433 14.4691L15.4927 14.4198L19.1921 18.1235C19.3894 18.4198 19.3894 18.8642 19.1427 19.1605Z" fill="#7E7E7E"/>
</svg>
