<svg width="24" height="24" viewBox="0 0 24 24" fill="none" xmlns="http://www.w3.org/2000/svg">
<path d="M12 11.6631C10.9703 11.6631 10.0907 11.2887 9.36107 10.5399C8.63147 9.7913 8.26667 8.88851 8.26667 7.83155C8.26667 6.77477 8.63147 5.87198 9.36107 5.12319C10.0907 4.3744 10.9703 4 12 4C13.0297 4 13.9093 4.3744 14.6389 5.12319C15.3685 5.87198 15.7333 6.77477 15.7333 7.83155C15.7333 8.88851 15.3685 9.7913 14.6389 10.5399C13.9093 11.2887 13.0297 11.6631 12 11.6631ZM4 18.3368V17.5661C4 17.0301 4.14187 16.5336 4.4256 16.0768C4.70933 15.6199 5.08853 15.2687 5.5632 15.0231C6.61742 14.4927 7.68098 14.0949 8.75387 13.8296C9.82676 13.5643 10.9088 13.4316 12 13.4316C13.0912 13.4316 14.1732 13.5643 15.2461 13.8296C16.319 14.0949 17.3826 14.4927 18.4368 15.0231C18.9115 15.2687 19.2907 15.6199 19.5744 16.0768C19.8581 16.5336 20 17.0301 20 17.5661V18.3368C20 18.7984 19.8424 19.1911 19.5272 19.5148C19.212 19.8383 18.8294 20 18.3795 20H5.62053C5.17058 20 4.788 19.8383 4.4728 19.5148C4.1576 19.1911 4 18.7984 4 18.3368Z" fill="#152649"/>
</svg>
