<svg width="121" height="30" viewBox="0 0 121 30" fill="none" xmlns="http://www.w3.org/2000/svg">
<path d="M6.36 29.76C7.13333 29.76 7.84 29.6733 8.48 29.5C9.12 29.3267 9.7 29.1067 10.22 28.84C10.74 28.5733 11.2 28.2867 11.6 27.98C12 27.6733 12.3467 27.3867 12.64 27.12L13.2 29.32H17.2V15.28C17.2 14.2933 17.1 13.36 16.9 12.48C16.7 11.6 16.32 10.8333 15.76 10.18C15.2 9.52667 14.4133 9.01333 13.4 8.64C12.3867 8.26667 11.08 8.08 9.48 8.08C8.41333 8.08 7.44667 8.16 6.58 8.32C5.71333 8.48 4.94 8.66667 4.26 8.88C3.58 9.09333 2.99333 9.32666 2.5 9.58C2.00667 9.83333 1.6 10.0533 1.28 10.24V14.56C1.57333 14.3467 1.97333 14.0867 2.48 13.78C2.98667 13.4733 3.56667 13.1667 4.22 12.86C4.87333 12.5533 5.58 12.2933 6.34 12.08C7.1 11.8667 7.89333 11.76 8.72 11.76C9.68 11.76 10.5067 11.92 11.2 12.24C11.8933 12.56 12.24 13.16 12.24 14.04V14.88C12.24 15.1733 12.1933 15.3667 12.1 15.46C12.0067 15.5533 11.7467 15.6667 11.32 15.8L5.36 17.8C4.21333 18.2 3.28667 18.6467 2.58 19.14C1.87333 19.6333 1.33333 20.1533 0.960001 20.7C0.586668 21.2467 0.333334 21.8067 0.200001 22.38C0.0666675 22.9533 0 23.5067 0 24.04C0 24.8667 0.16 25.6333 0.48 26.34C0.8 27.0467 1.24 27.6533 1.8 28.16C2.36 28.6667 3.02667 29.06 3.8 29.34C4.57333 29.62 5.42667 29.76 6.36 29.76ZM7.72 26.16C7.50667 26.16 7.24667 26.1267 6.94 26.06C6.63333 25.9933 6.34 25.8667 6.06 25.68C5.78 25.4933 5.54 25.2333 5.34 24.9C5.14 24.5667 5.04 24.1467 5.04 23.64C5.04 22.8933 5.24667 22.2667 5.66 21.76C6.07334 21.2533 6.8 20.8133 7.84 20.44L10.96 19.32C11.4133 19.16 11.7067 19.0533 11.84 19C11.9733 18.9467 12.1067 18.8533 12.24 18.72V23.84C11.2267 24.8533 10.32 25.4933 9.52 25.76C8.72 26.0267 8.12 26.16 7.72 26.16ZM24.23 5.44V0.48H19.27V5.44H24.23ZM24.23 29.32V8.52H19.27V29.32H24.23ZM31.42 29.32V19.08C31.42 18.04 31.64 17.1267 32.08 16.34C32.52 15.5533 33.0667 14.9 33.72 14.38C34.3733 13.86 35.0667 13.4667 35.8 13.2C36.5333 12.9333 37.18 12.8 37.74 12.8H38.38C38.7 12.8 38.9667 12.8267 39.18 12.88V8.2C39.02 8.14667 38.86 8.11333 38.7 8.1C38.54 8.08667 38.3133 8.08 38.02 8.08C37.2733 8.08 36.5733 8.2 35.92 8.44C35.2667 8.68 34.66 8.99333 34.1 9.38C33.54 9.76667 33.0267 10.22 32.56 10.74C32.0933 11.26 31.66 11.8 31.26 12.36V8.52H26.46V29.32H31.42ZM49.89 29.32C51.7833 29.32 53.41 29.1067 54.77 28.68C56.13 28.2533 57.2567 27.68 58.15 26.96C59.0433 26.24 59.7033 25.3933 60.13 24.42C60.5567 23.4467 60.77 22.4 60.77 21.28C60.77 19.92 60.5367 18.8133 60.07 17.96C59.6033 17.1067 59.0367 16.4133 58.37 15.88C57.7033 15.3467 56.9967 14.9533 56.25 14.7C55.5033 14.4467 54.85 14.24 54.29 14.08C54.77 13.92 55.3433 13.7 56.01 13.42C56.6767 13.14 57.31 12.74 57.91 12.22C58.51 11.7 59.0233 11.0333 59.45 10.22C59.8767 9.40667 60.09 8.38667 60.09 7.16C60.09 5.96 59.8767 4.95333 59.45 4.14C59.0233 3.32667 58.4767 2.65333 57.81 2.12C57.1433 1.58667 56.3967 1.18 55.57 0.900002C54.7433 0.620002 53.93 0.413332 53.13 0.279999C52.33 0.146665 51.5833 0.0666676 50.89 0.0400009C50.1967 0.0133342 49.6367 0 49.21 0H39.81V29.32H49.89ZM49.21 11.96H45.33V4.32H49.69C49.9833 4.32 50.4033 4.34 50.95 4.38C51.4967 4.42 52.0433 4.55333 52.59 4.78C53.1367 5.00667 53.6167 5.36667 54.03 5.86C54.4433 6.35333 54.65 7.06667 54.65 8C54.65 8.24 54.6033 8.58 54.51 9.02C54.4167 9.46 54.1833 9.9 53.81 10.34C53.4367 10.78 52.89 11.16 52.17 11.48C51.45 11.8 50.4633 11.96 49.21 11.96ZM48.77 25H45.33V16.2H49.13C50.33 16.2 51.3167 16.3333 52.09 16.6C52.8633 16.8667 53.47 17.2133 53.91 17.64C54.35 18.0667 54.6567 18.54 54.83 19.06C55.0033 19.58 55.09 20.1067 55.09 20.64C55.09 22.2133 54.4967 23.3333 53.31 24C52.1233 24.6667 50.61 25 48.77 25ZM66.8 29.76C67.5733 29.76 68.28 29.6733 68.92 29.5C69.56 29.3267 70.14 29.1067 70.66 28.84C71.18 28.5733 71.64 28.2867 72.04 27.98C72.44 27.6733 72.7867 27.3867 73.08 27.12L73.64 29.32H77.64V15.28C77.64 14.2933 77.54 13.36 77.34 12.48C77.14 11.6 76.76 10.8333 76.2 10.18C75.64 9.52667 74.8533 9.01333 73.84 8.64C72.8267 8.26667 71.52 8.08 69.92 8.08C68.8533 8.08 67.8867 8.16 67.02 8.32C66.1533 8.48 65.38 8.66667 64.7 8.88C64.02 9.09333 63.4333 9.32666 62.94 9.58C62.4467 9.83333 62.04 10.0533 61.72 10.24V14.56C62.0133 14.3467 62.4133 14.0867 62.92 13.78C63.4267 13.4733 64.0067 13.1667 64.66 12.86C65.3133 12.5533 66.02 12.2933 66.78 12.08C67.54 11.8667 68.3333 11.76 69.16 11.76C70.12 11.76 70.9467 11.92 71.64 12.24C72.3333 12.56 72.68 13.16 72.68 14.04V14.88C72.68 15.1733 72.6333 15.3667 72.54 15.46C72.4467 15.5533 72.1867 15.6667 71.76 15.8L65.8 17.8C64.6533 18.2 63.7267 18.6467 63.02 19.14C62.3133 19.6333 61.7733 20.1533 61.4 20.7C61.0267 21.2467 60.7733 21.8067 60.64 22.38C60.5067 22.9533 60.44 23.5067 60.44 24.04C60.44 24.8667 60.6 25.6333 60.92 26.34C61.24 27.0467 61.68 27.6533 62.24 28.16C62.8 28.6667 63.4667 29.06 64.24 29.34C65.0133 29.62 65.8667 29.76 66.8 29.76ZM68.16 26.16C67.9467 26.16 67.6867 26.1267 67.38 26.06C67.0733 25.9933 66.78 25.8667 66.5 25.68C66.22 25.4933 65.98 25.2333 65.78 24.9C65.58 24.5667 65.48 24.1467 65.48 23.64C65.48 22.8933 65.6867 22.2667 66.1 21.76C66.5133 21.2533 67.24 20.8133 68.28 20.44L71.4 19.32C71.8533 19.16 72.1467 19.0533 72.28 19C72.4133 18.9467 72.5467 18.8533 72.68 18.72V23.84C71.6667 24.8533 70.76 25.4933 69.96 25.76C69.16 26.0267 68.56 26.16 68.16 26.16ZM84.43 29.32V0H79.47V29.32H84.43ZM94.5 29.76C95.0067 29.76 95.44 29.7467 95.8 29.72C96.16 29.6933 96.5 29.6533 96.82 29.6V25.84C96.6067 25.8933 96.3867 25.9333 96.16 25.96C95.9333 25.9867 95.6733 26 95.38 26C94.82 26 94.3733 25.92 94.04 25.76C93.7067 25.6 93.4533 25.3867 93.28 25.12C93.1067 24.8533 93 24.54 92.96 24.18C92.92 23.82 92.9 23.4533 92.9 23.08V12.28H96.66V8.52H92.9V1.68H87.94V8.52H84.74V12.28H87.94V23.36C87.94 24.2667 88.02 25.1133 88.18 25.9C88.34 26.6867 88.66 27.3667 89.14 27.94C89.62 28.5133 90.2867 28.96 91.14 29.28C91.9933 29.6 93.1133 29.76 94.5 29.76ZM102.85 5.44V0.48H97.89V5.44H102.85ZM102.85 29.32V8.52H97.89V29.32H102.85ZM113.96 29.76C114.84 29.76 115.64 29.7 116.36 29.58C117.08 29.46 117.72 29.3067 118.28 29.12C118.84 28.9333 119.327 28.7467 119.74 28.56C120.153 28.3733 120.48 28.2133 120.72 28.08V23.68C120.4 23.92 120.04 24.1667 119.64 24.42C119.24 24.6733 118.8 24.9067 118.32 25.12C117.84 25.3333 117.307 25.5133 116.72 25.66C116.133 25.8067 115.48 25.88 114.76 25.88C113.853 25.88 113.08 25.74 112.44 25.46C111.8 25.18 111.26 24.8267 110.82 24.4C110.38 23.9733 110.04 23.4867 109.8 22.94C109.56 22.3933 109.373 21.8667 109.24 21.36C109.107 20.8533 109.02 20.38 108.98 19.94C108.94 19.5 108.92 19.16 108.92 18.92C108.92 18.0667 109.033 17.2267 109.26 16.4C109.487 15.5733 109.84 14.8267 110.32 14.16C110.8 13.4933 111.42 12.96 112.18 12.56C112.94 12.16 113.853 11.96 114.92 11.96C115.613 11.96 116.24 12.0333 116.8 12.18C117.36 12.3267 117.86 12.5067 118.3 12.72C118.74 12.9333 119.127 13.1667 119.46 13.42C119.793 13.6733 120.08 13.9067 120.32 14.12V9.6C120.107 9.46667 119.827 9.31333 119.48 9.14C119.133 8.96667 118.707 8.8 118.2 8.64C117.693 8.48 117.113 8.34666 116.46 8.24C115.807 8.13333 115.053 8.08 114.2 8.08C112.44 8.08 110.913 8.37333 109.62 8.96C108.327 9.54667 107.26 10.34 106.42 11.34C105.58 12.34 104.953 13.4933 104.54 14.8C104.127 16.1067 103.92 17.48 103.92 18.92C103.92 20.3067 104.113 21.6467 104.5 22.94C104.887 24.2333 105.487 25.3867 106.3 26.4C107.113 27.4133 108.153 28.2267 109.42 28.84C110.687 29.4533 112.2 29.76 113.96 29.76Z" fill="#152649"/>
</svg>
